# xmcd
#
# Track frame offsets:
#	150
#	25685
#	51980
#	72797
#	95187
#	99365
#	123352
#	144750
#	168717
#	190680
#
# Disc length: 2587 seconds
#
# Revision: 0
# Processed by: cddbd v1.4PL0 Copyright (c) Steve Scherf et al.
# Submitted via: dBpowerAMP V4.0
#
DISCID=830a190a
DTITLE=Full Force - Get Busy 1 Time!
DYEAR=1986
DGENRE=R&B
TTITLE0=Temporary Love Thing
TTITLE1=Unfaithful
TTITLE2=Never Had Another Lover
TTITLE3=Old Flames Never Die
TTITLE4=Child's Play (Part1)
TTITLE5=So Much
TTITLE6=Chain Me To The Night
TTITLE7=Body Heavenly
TTITLE8=Love Scene
TTITLE9=Child's Play (Part2)
EXTD=
EXTT0=
EXTT1=
EXTT2=
EXTT3=
EXTT4=
EXTT5=
EXTT6=
EXTT7=
EXTT8=
EXTT9=
PLAYORDER=
